<?xml version="1.0" encoding="utf-8"?>
<!-- Generator: Adobe Illustrator 23.0.0, SVG Export Plug-In . SVG Version: 6.00 Build 0)  -->
<svg version="1.1" id="Layer_1" xmlns="http://www.w3.org/2000/svg" xmlns:xlink="http://www.w3.org/1999/xlink" x="0px" y="0px"
	 viewBox="0 0 1366 768" style="enable-background:new 0 0 1366 768;" xml:space="preserve">
<style type="text/css">
	.st0{fill:#01B2AC;}
	.st1{fill:#9B004A;}
	.st2{fill:#FFFFFF;}
	.st3{font-family:'MyriadPro-Regular';}
	.st4{font-size:167px;}
</style>
<g>
	<rect x="245" y="89" class="st0" width="226" height="202"/>
</g>
<g>
	<rect x="474" y="363" class="st1" width="226" height="202"/>
</g>
<g>
	<rect x="703" y="229" class="st0" width="226" height="202"/>
</g>
<g>
	<rect x="474" y="158" class="st0" width="226" height="202"/>
</g>
<g>
	<rect x="245" y="293" class="st1" width="226" height="202"/>
</g>
<g>
	<rect x="703" y="434" class="st1" width="226" height="202"/>
</g>
<text transform="matrix(1 0 0 1 309.25 259)" class="st2 st3 st4">T</text>
<text transform="matrix(1 0 0 1 541.25 317.25)" class="st2 st3 st4">E</text>
<text transform="matrix(1 0 0 1 758.25 384.5)" class="st2 st3 st4">O</text>
<text transform="matrix(1 0 0 1 309 451.25)" class="st2 st3 st4">L</text>
<text transform="matrix(1 0 0 1 531.5 518.25)" class="st2 st3 st4">O</text>
<text transform="matrix(1 0 0 1 775.75 595.75)" class="st2 st3 st4">S</text>
</svg>
